<?xml version="1.0" standalone="no"?>
<!DOCTYPE svg PUBLIC "-//W3C//DTD SVG 20010904//EN"
 "http://www.w3.org/TR/2001/REC-SVG-20010904/DTD/svg10.dtd">
<svg version="1.0" xmlns="http://www.w3.org/2000/svg"
 width="300.000000pt" height="300.000000pt" viewBox="0 0 300.000000 300.000000"
 preserveAspectRatio="xMidYMid meet">
<metadata>
Created by potrace 1.10, written by Peter Selinger 2001-2011
</metadata>
<g transform="translate(0.000000,300.000000) scale(0.100000,-0.100000)"
fill="#000000" stroke="none">
<path d="M1045 2970 c4 -6 12 -9 18 -8 7 1 23 -4 36 -11 18 -10 25 -10 35 0 8
9 7 11 -6 6 -9 -3 -18 -2 -20 3 -2 5 -18 12 -36 15 -22 4 -31 2 -27 -5z"/>
<path d="M1300 2888 c8 -9 18 -14 22 -12 4 2 9 0 13 -5 3 -6 12 -8 20 -4 8 3
15 0 15 -7 0 -6 5 -8 10 -5 6 4 17 2 25 -5 7 -6 16 -7 19 -2 3 5 -21 17 -52
27 -31 9 -64 20 -72 23 -13 5 -13 4 0 -10z"/>
<path d="M2 2873 c3 -14 207 -96 543 -217 151 -55 505 -186 700 -261 33 -13
105 -39 160 -60 55 -20 200 -74 322 -121 123 -46 227 -84 233 -84 5 0 10 7 10
15 0 8 9 15 20 15 11 0 20 5 20 10 0 6 5 10 10 10 7 0 7 -6 0 -19 -13 -25 -13
-31 0 -31 6 0 9 3 8 8 0 4 2 15 7 25 11 25 -1 32 -31 18 -15 -6 -36 -9 -48 -5
-19 6 -20 5 -6 -11 14 -18 14 -18 -11 -2 -14 10 -201 82 -415 161 -214 79
-609 226 -879 326 -269 100 -525 194 -568 210 -65 24 -78 26 -75 13z"/>
<path d="M1440 2846 c0 -7 43 -25 73 -31 9 -2 22 -7 27 -10 6 -3 10 -2 10 3 0
5 -18 14 -41 21 -23 7 -47 15 -55 18 -8 3 -14 2 -14 -1z"/>
<path d="M1706 2750 c6 -6 20 -12 32 -15 12 -2 27 -7 32 -10 6 -3 10 -2 10 2
0 5 -15 14 -33 21 -41 15 -54 15 -41 2z"/>
<path d="M1875 2691 c-3 -6 0 -12 7 -12 45 -5 56 -7 67 -13 6 -4 11 -3 11 2 0
6 -11 13 -24 16 -13 3 -31 8 -39 12 -8 3 -18 1 -22 -5z"/>
<path d="M2060 2630 c0 -6 5 -8 10 -5 6 3 10 2 10 -3 0 -5 12 -9 26 -9 15 0
30 -6 33 -12 4 -6 25 -14 47 -17 36 -4 34 -3 -21 20 -88 35 -105 39 -105 26z"/>
<path d="M2236 2566 c8 -22 52 -32 67 -16 9 10 8 12 -5 7 -9 -3 -18 -2 -20 2
-2 5 -13 11 -25 15 -18 6 -22 4 -17 -8z"/>
<path d="M4 2542 c3 -6 55 -29 114 -52 460 -179 821 -318 897 -347 50 -18 99
-38 110 -42 20 -9 428 -168 605 -236 52 -20 126 -49 165 -65 64 -26 99 -30 78
-9 -5 5 -278 113 -608 240 -1493 575 -1373 530 -1361 511z"/>
<path d="M2392 2537 c-7 -8 -29 -19 -51 -27 -53 -17 -216 -159 -268 -233 -48
-67 -49 -72 -29 -80 9 -4 13 -1 10 6 -9 23 65 111 163 195 107 92 144 115 167
106 13 -5 15 -35 13 -200 -1 -107 -5 -194 -8 -194 -4 0 -9 -11 -11 -25 -3 -14
-1 -25 4 -25 5 0 8 -19 6 -42 -3 -45 -16 -63 -138 -191 -117 -124 -212 -217
-221 -217 -10 0 -33 -40 -26 -46 6 -6 37 25 206 204 80 84 155 155 168 158 13
4 23 9 24 13 0 3 2 21 4 39 1 18 6 149 11 290 5 141 8 261 9 266 0 16 -21 17
-33 3z"/>
<path d="M1972 2020 c0 -58 4 -118 8 -135 5 -19 8 7 8 75 0 58 -4 119 -8 135
-5 19 -8 -7 -8 -75z"/>
<path d="M1981 1729 c-1 -21 -55 -75 -273 -275 -150 -137 -361 -330 -468 -429
-107 -99 -220 -202 -250 -230 -30 -27 -86 -79 -125 -115 -61 -57 -268 -247
-347 -318 l-26 -24 -109 58 c-59 31 -167 90 -240 131 -138 76 -143 78 -143 65
0 -5 26 -23 58 -39 31 -17 126 -69 211 -117 85 -47 158 -86 162 -86 22 0 16
-24 -16 -68 -19 -27 -35 -55 -35 -61 0 -13 -51 10 -85 38 -18 15 -19 15 -6 -1
25 -33 120 -80 146 -74 29 7 71 60 81 101 6 26 2 23 -27 -20 -35 -52 -77 -81
-93 -65 -25 25 65 137 103 127 12 -3 21 -1 21 5 0 5 15 21 32 36 41 34 475
437 698 648 47 44 126 116 175 159 92 81 296 264 438 393 44 39 85 72 92 72
14 0 40 82 32 102 -3 7 -6 1 -6 -13z"/>
</g>
</svg>
